# xmcd
#
# Track frame offsets: 
#        150
#        9123
#        22211
#        39206
#        71449
#        86522
#        95935
#        107205
#        124885
#
# Disc length: 1900 seconds
#
# Revision: 0
# Processed by: cddbd v1.5.2PL0 Copyright (c) Steve Scherf et al.
# Submitted via: ExactAudioCopy v1.3
#
DISCID=6f076a09
DTITLE=The Willis Family - His Grace
DYEAR=2002
DGENRE=Southern Gospel
TTITLE0=He Lives
TTITLE1=Yes I Know
TTITLE2=I Am With Thee
TTITLE3=I Find No Fault
TTITLE4=Wonderful Merciful Savior
TTITLE5=Saved By Grace
TTITLE6=That Heavenly Home
TTITLE7=So Much God
TTITLE8=I'm Free
EXTD=
EXTT0=
EXTT1=
EXTT2=
EXTT3=
EXTT4=
EXTT5=
EXTT6=
EXTT7=
EXTT8=
PLAYORDER=
